<mxfile host="app.diagrams.net" modified="2023-11-05T03:03:00.188Z" agent="Mozilla/5.0 (Windows NT 10.0; Win64; x64) AppleWebKit/537.36 (KHTML, like Gecko) Chrome/118.0.0.0 Safari/537.36" etag="TKW6wudXngdmkp9J2fkt" version="22.0.8" type="github">
  <diagram name="Page-1" id="whmqMUQN8AT_rhxbyXaO">
    <mxGraphModel dx="1014" dy="670" grid="1" gridSize="10" guides="1" tooltips="1" connect="1" arrows="1" fold="1" page="1" pageScale="1" pageWidth="850" pageHeight="1100" math="0" shadow="0">
      <root>
        <mxCell id="0" />
        <mxCell id="1" parent="0" />
        <mxCell id="KTBhJwbWVJIcJmlqZFoL-1" value="" style="rounded=1;whiteSpace=wrap;html=1;fillColor=#dae8fc;strokeColor=#6c8ebf;" vertex="1" parent="1">
          <mxGeometry x="75" y="40" width="90" height="60" as="geometry" />
        </mxCell>
        <mxCell id="KTBhJwbWVJIcJmlqZFoL-5" value="" style="rounded=1;whiteSpace=wrap;html=1;fillColor=#dae8fc;strokeColor=#6c8ebf;" vertex="1" parent="1">
          <mxGeometry x="230" y="40" width="90" height="60" as="geometry" />
        </mxCell>
        <mxCell id="KTBhJwbWVJIcJmlqZFoL-6" value="" style="rounded=1;whiteSpace=wrap;html=1;fillColor=#dae8fc;strokeColor=#6c8ebf;" vertex="1" parent="1">
          <mxGeometry x="380" y="40" width="90" height="60" as="geometry" />
        </mxCell>
        <mxCell id="KTBhJwbWVJIcJmlqZFoL-7" value="" style="rounded=1;whiteSpace=wrap;html=1;fillColor=#dae8fc;strokeColor=#6c8ebf;" vertex="1" parent="1">
          <mxGeometry x="530" y="40" width="90" height="60" as="geometry" />
        </mxCell>
        <mxCell id="KTBhJwbWVJIcJmlqZFoL-8" value="" style="rounded=1;whiteSpace=wrap;html=1;fillColor=#dae8fc;strokeColor=#6c8ebf;" vertex="1" parent="1">
          <mxGeometry x="685" y="40" width="90" height="60" as="geometry" />
        </mxCell>
        <mxCell id="KTBhJwbWVJIcJmlqZFoL-9" value="" style="rounded=1;whiteSpace=wrap;html=1;arcSize=0;fillColor=#dae8fc;strokeColor=#6c8ebf;" vertex="1" parent="1">
          <mxGeometry x="685" y="160" width="90" height="60" as="geometry" />
        </mxCell>
        <mxCell id="KTBhJwbWVJIcJmlqZFoL-10" value="" style="rounded=1;whiteSpace=wrap;html=1;fillColor=#dae8fc;strokeColor=#6c8ebf;" vertex="1" parent="1">
          <mxGeometry x="685" y="280" width="90" height="60" as="geometry" />
        </mxCell>
        <mxCell id="KTBhJwbWVJIcJmlqZFoL-11" value="" style="rounded=1;whiteSpace=wrap;html=1;fillColor=#dae8fc;strokeColor=#6c8ebf;" vertex="1" parent="1">
          <mxGeometry x="685" y="400" width="90" height="60" as="geometry" />
        </mxCell>
        <mxCell id="KTBhJwbWVJIcJmlqZFoL-12" value="" style="rounded=1;whiteSpace=wrap;html=1;fillColor=#dae8fc;strokeColor=#6c8ebf;" vertex="1" parent="1">
          <mxGeometry x="685" y="520" width="90" height="60" as="geometry" />
        </mxCell>
        <mxCell id="KTBhJwbWVJIcJmlqZFoL-13" value="" style="rounded=1;whiteSpace=wrap;html=1;fillColor=#dae8fc;strokeColor=#6c8ebf;" vertex="1" parent="1">
          <mxGeometry x="530" y="160" width="90" height="60" as="geometry" />
        </mxCell>
        <mxCell id="KTBhJwbWVJIcJmlqZFoL-14" value="" style="rounded=1;whiteSpace=wrap;html=1;fillColor=#dae8fc;strokeColor=#6c8ebf;" vertex="1" parent="1">
          <mxGeometry x="380" y="160" width="85" height="60" as="geometry" />
        </mxCell>
        <mxCell id="KTBhJwbWVJIcJmlqZFoL-15" value="" style="rounded=1;whiteSpace=wrap;html=1;fillColor=#dae8fc;strokeColor=#6c8ebf;" vertex="1" parent="1">
          <mxGeometry x="230" y="160" width="90" height="60" as="geometry" />
        </mxCell>
        <mxCell id="KTBhJwbWVJIcJmlqZFoL-16" value="" style="rounded=1;whiteSpace=wrap;html=1;fillColor=#dae8fc;strokeColor=#6c8ebf;" vertex="1" parent="1">
          <mxGeometry x="75" y="160" width="90" height="60" as="geometry" />
        </mxCell>
        <mxCell id="KTBhJwbWVJIcJmlqZFoL-17" value="" style="rounded=1;whiteSpace=wrap;html=1;fillColor=#dae8fc;strokeColor=#6c8ebf;" vertex="1" parent="1">
          <mxGeometry x="75" y="280" width="90" height="60" as="geometry" />
        </mxCell>
        <mxCell id="KTBhJwbWVJIcJmlqZFoL-18" value="" style="rounded=1;whiteSpace=wrap;html=1;fillColor=#dae8fc;strokeColor=#6c8ebf;" vertex="1" parent="1">
          <mxGeometry x="75" y="400" width="90" height="60" as="geometry" />
        </mxCell>
        <mxCell id="KTBhJwbWVJIcJmlqZFoL-19" value="" style="rounded=1;whiteSpace=wrap;html=1;fillColor=#dae8fc;strokeColor=#6c8ebf;" vertex="1" parent="1">
          <mxGeometry x="75" y="520" width="90" height="60" as="geometry" />
        </mxCell>
        <mxCell id="KTBhJwbWVJIcJmlqZFoL-20" value="" style="rounded=1;whiteSpace=wrap;html=1;fillColor=#dae8fc;strokeColor=#6c8ebf;" vertex="1" parent="1">
          <mxGeometry x="230" y="280" width="90" height="60" as="geometry" />
        </mxCell>
        <mxCell id="KTBhJwbWVJIcJmlqZFoL-22" value="" style="rounded=1;whiteSpace=wrap;html=1;fillColor=#dae8fc;strokeColor=#6c8ebf;" vertex="1" parent="1">
          <mxGeometry x="530" y="280" width="90" height="60" as="geometry" />
        </mxCell>
        <mxCell id="KTBhJwbWVJIcJmlqZFoL-23" value="" style="rounded=1;whiteSpace=wrap;html=1;fillColor=#dae8fc;strokeColor=#6c8ebf;" vertex="1" parent="1">
          <mxGeometry x="230" y="400" width="90" height="60" as="geometry" />
        </mxCell>
        <mxCell id="KTBhJwbWVJIcJmlqZFoL-24" value="" style="rounded=1;whiteSpace=wrap;html=1;fillColor=#dae8fc;strokeColor=#6c8ebf;" vertex="1" parent="1">
          <mxGeometry x="375" y="400" width="90" height="60" as="geometry" />
        </mxCell>
        <mxCell id="KTBhJwbWVJIcJmlqZFoL-25" value="" style="rounded=1;whiteSpace=wrap;html=1;fillColor=#dae8fc;strokeColor=#6c8ebf;" vertex="1" parent="1">
          <mxGeometry x="530" y="400" width="90" height="60" as="geometry" />
        </mxCell>
        <mxCell id="KTBhJwbWVJIcJmlqZFoL-26" value="" style="rounded=1;whiteSpace=wrap;html=1;fillColor=#dae8fc;strokeColor=#6c8ebf;" vertex="1" parent="1">
          <mxGeometry x="230" y="520" width="90" height="60" as="geometry" />
        </mxCell>
        <mxCell id="KTBhJwbWVJIcJmlqZFoL-27" value="" style="rounded=1;whiteSpace=wrap;html=1;fillColor=#dae8fc;strokeColor=#6c8ebf;" vertex="1" parent="1">
          <mxGeometry x="375" y="520" width="90" height="60" as="geometry" />
        </mxCell>
        <mxCell id="KTBhJwbWVJIcJmlqZFoL-28" value="" style="rounded=1;whiteSpace=wrap;html=1;fillColor=#dae8fc;strokeColor=#6c8ebf;" vertex="1" parent="1">
          <mxGeometry x="530" y="520" width="90" height="60" as="geometry" />
        </mxCell>
        <mxCell id="KTBhJwbWVJIcJmlqZFoL-30" value="Start S1" style="text;html=1;strokeColor=none;fillColor=none;align=center;verticalAlign=middle;whiteSpace=wrap;rounded=0;" vertex="1" parent="1">
          <mxGeometry x="75" y="55" width="60" height="30" as="geometry" />
        </mxCell>
        <mxCell id="KTBhJwbWVJIcJmlqZFoL-32" value="S3" style="text;html=1;strokeColor=none;fillColor=none;align=center;verticalAlign=middle;whiteSpace=wrap;rounded=0;" vertex="1" parent="1">
          <mxGeometry x="395" y="55" width="60" height="30" as="geometry" />
        </mxCell>
        <mxCell id="KTBhJwbWVJIcJmlqZFoL-33" value="S4" style="text;html=1;strokeColor=none;fillColor=none;align=center;verticalAlign=middle;whiteSpace=wrap;rounded=0;" vertex="1" parent="1">
          <mxGeometry x="545" y="55" width="60" height="30" as="geometry" />
        </mxCell>
        <mxCell id="KTBhJwbWVJIcJmlqZFoL-35" value="S5" style="text;html=1;strokeColor=none;fillColor=none;align=center;verticalAlign=middle;whiteSpace=wrap;rounded=0;" vertex="1" parent="1">
          <mxGeometry x="700" y="55" width="60" height="30" as="geometry" />
        </mxCell>
        <mxCell id="KTBhJwbWVJIcJmlqZFoL-36" value="S6" style="text;html=1;strokeColor=none;fillColor=none;align=center;verticalAlign=middle;whiteSpace=wrap;rounded=0;" vertex="1" parent="1">
          <mxGeometry x="700" y="175" width="60" height="30" as="geometry" />
        </mxCell>
        <mxCell id="KTBhJwbWVJIcJmlqZFoL-43" value="" style="rounded=1;whiteSpace=wrap;html=1;fillColor=#dae8fc;strokeColor=#6c8ebf;" vertex="1" parent="1">
          <mxGeometry x="380" y="280" width="90" height="60" as="geometry" />
        </mxCell>
        <mxCell id="KTBhJwbWVJIcJmlqZFoL-44" value="" style="shape=flexArrow;endArrow=classic;html=1;rounded=0;exitX=1.033;exitY=0.625;exitDx=0;exitDy=0;exitPerimeter=0;fillColor=#f8cecc;strokeColor=#b85450;" edge="1" parent="1">
          <mxGeometry width="50" height="50" relative="1" as="geometry">
            <mxPoint x="323" y="69.5" as="sourcePoint" />
            <mxPoint x="380" y="69.5" as="targetPoint" />
          </mxGeometry>
        </mxCell>
        <mxCell id="KTBhJwbWVJIcJmlqZFoL-46" value="" style="shape=flexArrow;endArrow=classic;html=1;rounded=0;exitX=1.033;exitY=0.625;exitDx=0;exitDy=0;exitPerimeter=0;fillColor=#f8cecc;strokeColor=#b85450;" edge="1" parent="1">
          <mxGeometry width="50" height="50" relative="1" as="geometry">
            <mxPoint x="473" y="69.5" as="sourcePoint" />
            <mxPoint x="530" y="69.5" as="targetPoint" />
          </mxGeometry>
        </mxCell>
        <mxCell id="KTBhJwbWVJIcJmlqZFoL-48" value="" style="shape=flexArrow;endArrow=classic;html=1;rounded=0;exitX=1;exitY=0.5;exitDx=0;exitDy=0;fillColor=#f8cecc;strokeColor=#b85450;" edge="1" parent="1" source="KTBhJwbWVJIcJmlqZFoL-7">
          <mxGeometry width="50" height="50" relative="1" as="geometry">
            <mxPoint x="628" y="70" as="sourcePoint" />
            <mxPoint x="685" y="69.5" as="targetPoint" />
          </mxGeometry>
        </mxCell>
        <mxCell id="KTBhJwbWVJIcJmlqZFoL-51" value="" style="shape=flexArrow;endArrow=classic;html=1;rounded=0;exitX=0.5;exitY=1;exitDx=0;exitDy=0;entryX=0.5;entryY=0;entryDx=0;entryDy=0;fillColor=#f8cecc;strokeColor=#b85450;" edge="1" parent="1" source="KTBhJwbWVJIcJmlqZFoL-8" target="KTBhJwbWVJIcJmlqZFoL-9">
          <mxGeometry width="50" height="50" relative="1" as="geometry">
            <mxPoint x="710" y="109" as="sourcePoint" />
            <mxPoint x="716.03" y="160" as="targetPoint" />
          </mxGeometry>
        </mxCell>
        <mxCell id="KTBhJwbWVJIcJmlqZFoL-53" value="" style="shape=flexArrow;endArrow=classic;html=1;rounded=0;exitX=0;exitY=0.5;exitDx=0;exitDy=0;entryX=1;entryY=0.5;entryDx=0;entryDy=0;fillColor=#f8cecc;strokeColor=#b85450;" edge="1" parent="1" source="KTBhJwbWVJIcJmlqZFoL-13" target="KTBhJwbWVJIcJmlqZFoL-14">
          <mxGeometry width="50" height="50" relative="1" as="geometry">
            <mxPoint x="490" y="190" as="sourcePoint" />
            <mxPoint x="470" y="190" as="targetPoint" />
          </mxGeometry>
        </mxCell>
        <mxCell id="KTBhJwbWVJIcJmlqZFoL-54" value="" style="shape=flexArrow;endArrow=classic;html=1;rounded=0;exitX=0;exitY=0.5;exitDx=0;exitDy=0;entryX=1;entryY=0.5;entryDx=0;entryDy=0;fillColor=#f8cecc;strokeColor=#b85450;" edge="1" parent="1" target="KTBhJwbWVJIcJmlqZFoL-15">
          <mxGeometry width="50" height="50" relative="1" as="geometry">
            <mxPoint x="380" y="189.5" as="sourcePoint" />
            <mxPoint x="325" y="189.5" as="targetPoint" />
          </mxGeometry>
        </mxCell>
        <mxCell id="KTBhJwbWVJIcJmlqZFoL-55" value="" style="shape=flexArrow;endArrow=classic;html=1;rounded=0;exitX=0;exitY=0.5;exitDx=0;exitDy=0;entryX=1;entryY=0.5;entryDx=0;entryDy=0;fillColor=#f8cecc;strokeColor=#b85450;" edge="1" parent="1" source="KTBhJwbWVJIcJmlqZFoL-15">
          <mxGeometry width="50" height="50" relative="1" as="geometry">
            <mxPoint x="220" y="189.5" as="sourcePoint" />
            <mxPoint x="165" y="189.5" as="targetPoint" />
          </mxGeometry>
        </mxCell>
        <mxCell id="KTBhJwbWVJIcJmlqZFoL-56" value="" style="shape=flexArrow;endArrow=classic;html=1;rounded=0;exitX=0.5;exitY=1;exitDx=0;exitDy=0;entryX=0.567;entryY=-0.15;entryDx=0;entryDy=0;entryPerimeter=0;fillColor=#f8cecc;strokeColor=#b85450;" edge="1" parent="1">
          <mxGeometry width="50" height="50" relative="1" as="geometry">
            <mxPoint x="119.49" y="220" as="sourcePoint" />
            <mxPoint x="120.51999999999997" y="280" as="targetPoint" />
          </mxGeometry>
        </mxCell>
        <mxCell id="KTBhJwbWVJIcJmlqZFoL-57" value="" style="shape=flexArrow;endArrow=classic;html=1;rounded=0;exitX=1.033;exitY=0.625;exitDx=0;exitDy=0;exitPerimeter=0;fillColor=#f8cecc;strokeColor=#b85450;" edge="1" parent="1">
          <mxGeometry width="50" height="50" relative="1" as="geometry">
            <mxPoint x="168" y="309.5" as="sourcePoint" />
            <mxPoint x="225" y="309.5" as="targetPoint" />
          </mxGeometry>
        </mxCell>
        <mxCell id="KTBhJwbWVJIcJmlqZFoL-58" value="" style="shape=flexArrow;endArrow=classic;html=1;rounded=0;exitX=1.033;exitY=0.625;exitDx=0;exitDy=0;exitPerimeter=0;fillColor=#f8cecc;strokeColor=#b85450;" edge="1" parent="1">
          <mxGeometry width="50" height="50" relative="1" as="geometry">
            <mxPoint x="323" y="309.5" as="sourcePoint" />
            <mxPoint x="380" y="309.5" as="targetPoint" />
          </mxGeometry>
        </mxCell>
        <mxCell id="KTBhJwbWVJIcJmlqZFoL-59" value="" style="shape=flexArrow;endArrow=classic;html=1;rounded=0;exitX=1.033;exitY=0.625;exitDx=0;exitDy=0;exitPerimeter=0;fillColor=#f8cecc;strokeColor=#b85450;" edge="1" parent="1">
          <mxGeometry width="50" height="50" relative="1" as="geometry">
            <mxPoint x="470" y="309.5" as="sourcePoint" />
            <mxPoint x="527" y="309.5" as="targetPoint" />
          </mxGeometry>
        </mxCell>
        <mxCell id="KTBhJwbWVJIcJmlqZFoL-64" value="" style="shape=flexArrow;endArrow=classic;html=1;rounded=0;exitX=0;exitY=0.5;exitDx=0;exitDy=0;entryX=1;entryY=0.5;entryDx=0;entryDy=0;fillColor=#f8cecc;strokeColor=#b85450;" edge="1" parent="1">
          <mxGeometry width="50" height="50" relative="1" as="geometry">
            <mxPoint x="685" y="189.5" as="sourcePoint" />
            <mxPoint x="620" y="189.5" as="targetPoint" />
          </mxGeometry>
        </mxCell>
        <mxCell id="KTBhJwbWVJIcJmlqZFoL-65" value="" style="shape=flexArrow;endArrow=classic;html=1;rounded=0;exitX=1;exitY=0.5;exitDx=0;exitDy=0;fillColor=#f8cecc;strokeColor=#b85450;" edge="1" parent="1" source="KTBhJwbWVJIcJmlqZFoL-22">
          <mxGeometry width="50" height="50" relative="1" as="geometry">
            <mxPoint x="628" y="309.5" as="sourcePoint" />
            <mxPoint x="685" y="309.5" as="targetPoint" />
          </mxGeometry>
        </mxCell>
        <mxCell id="KTBhJwbWVJIcJmlqZFoL-67" value="" style="shape=flexArrow;endArrow=classic;html=1;rounded=0;exitX=0.5;exitY=1;exitDx=0;exitDy=0;entryX=0.5;entryY=0;entryDx=0;entryDy=0;fillColor=#f8cecc;strokeColor=#b85450;" edge="1" parent="1">
          <mxGeometry width="50" height="50" relative="1" as="geometry">
            <mxPoint x="729.5" y="340" as="sourcePoint" />
            <mxPoint x="729.5" y="400" as="targetPoint" />
          </mxGeometry>
        </mxCell>
        <mxCell id="KTBhJwbWVJIcJmlqZFoL-68" value="" style="shape=flexArrow;endArrow=classic;html=1;rounded=0;exitX=0.5;exitY=1;exitDx=0;exitDy=0;entryX=0.567;entryY=-0.15;entryDx=0;entryDy=0;entryPerimeter=0;fillColor=#f8cecc;strokeColor=#b85450;" edge="1" parent="1">
          <mxGeometry width="50" height="50" relative="1" as="geometry">
            <mxPoint x="119.49" y="460" as="sourcePoint" />
            <mxPoint x="120.51999999999997" y="520" as="targetPoint" />
          </mxGeometry>
        </mxCell>
        <mxCell id="KTBhJwbWVJIcJmlqZFoL-69" value="" style="shape=flexArrow;endArrow=classic;html=1;rounded=0;exitX=1;exitY=0.5;exitDx=0;exitDy=0;fillColor=#f8cecc;strokeColor=#b85450;" edge="1" parent="1">
          <mxGeometry width="50" height="50" relative="1" as="geometry">
            <mxPoint x="165" y="549.5" as="sourcePoint" />
            <mxPoint x="230" y="549" as="targetPoint" />
          </mxGeometry>
        </mxCell>
        <mxCell id="KTBhJwbWVJIcJmlqZFoL-71" value="" style="shape=flexArrow;endArrow=classic;html=1;rounded=0;exitX=1.033;exitY=0.625;exitDx=0;exitDy=0;exitPerimeter=0;fillColor=#f8cecc;strokeColor=#b85450;" edge="1" parent="1">
          <mxGeometry width="50" height="50" relative="1" as="geometry">
            <mxPoint x="320" y="549" as="sourcePoint" />
            <mxPoint x="377" y="549" as="targetPoint" />
          </mxGeometry>
        </mxCell>
        <mxCell id="KTBhJwbWVJIcJmlqZFoL-72" value="" style="shape=flexArrow;endArrow=classic;html=1;rounded=0;exitX=1;exitY=0.5;exitDx=0;exitDy=0;fillColor=#f8cecc;strokeColor=#b85450;" edge="1" parent="1">
          <mxGeometry width="50" height="50" relative="1" as="geometry">
            <mxPoint x="465" y="550.5" as="sourcePoint" />
            <mxPoint x="530" y="550" as="targetPoint" />
          </mxGeometry>
        </mxCell>
        <mxCell id="KTBhJwbWVJIcJmlqZFoL-73" value="" style="shape=flexArrow;endArrow=classic;html=1;rounded=0;exitX=1;exitY=0.5;exitDx=0;exitDy=0;fillColor=#f8cecc;strokeColor=#b85450;" edge="1" parent="1">
          <mxGeometry width="50" height="50" relative="1" as="geometry">
            <mxPoint x="620" y="550.5" as="sourcePoint" />
            <mxPoint x="685" y="550" as="targetPoint" />
          </mxGeometry>
        </mxCell>
        <mxCell id="KTBhJwbWVJIcJmlqZFoL-74" value="" style="shape=flexArrow;endArrow=classic;html=1;rounded=0;exitX=0;exitY=0.5;exitDx=0;exitDy=0;entryX=1;entryY=0.5;entryDx=0;entryDy=0;fillColor=#f8cecc;strokeColor=#b85450;" edge="1" parent="1">
          <mxGeometry width="50" height="50" relative="1" as="geometry">
            <mxPoint x="530" y="429.5" as="sourcePoint" />
            <mxPoint x="465" y="429.5" as="targetPoint" />
          </mxGeometry>
        </mxCell>
        <mxCell id="KTBhJwbWVJIcJmlqZFoL-76" value="" style="shape=flexArrow;endArrow=classic;html=1;rounded=0;exitX=0;exitY=0.5;exitDx=0;exitDy=0;entryX=1;entryY=0.5;entryDx=0;entryDy=0;fillColor=#f8cecc;strokeColor=#b85450;" edge="1" parent="1">
          <mxGeometry width="50" height="50" relative="1" as="geometry">
            <mxPoint x="230" y="429.5" as="sourcePoint" />
            <mxPoint x="165" y="429.5" as="targetPoint" />
          </mxGeometry>
        </mxCell>
        <mxCell id="KTBhJwbWVJIcJmlqZFoL-77" value="" style="shape=flexArrow;endArrow=classic;html=1;rounded=0;exitX=0;exitY=0.5;exitDx=0;exitDy=0;entryX=1;entryY=0.5;entryDx=0;entryDy=0;fillColor=#f8cecc;strokeColor=#b85450;" edge="1" parent="1">
          <mxGeometry width="50" height="50" relative="1" as="geometry">
            <mxPoint x="375" y="429.5" as="sourcePoint" />
            <mxPoint x="320" y="429.5" as="targetPoint" />
          </mxGeometry>
        </mxCell>
        <mxCell id="KTBhJwbWVJIcJmlqZFoL-78" value="S7" style="text;html=1;strokeColor=none;fillColor=none;align=center;verticalAlign=middle;whiteSpace=wrap;rounded=0;" vertex="1" parent="1">
          <mxGeometry x="545" y="175" width="60" height="30" as="geometry" />
        </mxCell>
        <mxCell id="KTBhJwbWVJIcJmlqZFoL-79" value="S8" style="text;html=1;strokeColor=none;fillColor=none;align=center;verticalAlign=middle;whiteSpace=wrap;rounded=0;" vertex="1" parent="1">
          <mxGeometry x="392.5" y="175" width="60" height="30" as="geometry" />
        </mxCell>
        <mxCell id="KTBhJwbWVJIcJmlqZFoL-80" value="S9" style="text;html=1;strokeColor=none;fillColor=none;align=center;verticalAlign=middle;whiteSpace=wrap;rounded=0;" vertex="1" parent="1">
          <mxGeometry x="245" y="175" width="60" height="30" as="geometry" />
        </mxCell>
        <mxCell id="KTBhJwbWVJIcJmlqZFoL-82" value="S10" style="text;html=1;strokeColor=none;fillColor=none;align=center;verticalAlign=middle;whiteSpace=wrap;rounded=0;" vertex="1" parent="1">
          <mxGeometry x="90" y="175" width="60" height="30" as="geometry" />
        </mxCell>
        <mxCell id="KTBhJwbWVJIcJmlqZFoL-83" value="S11" style="text;html=1;strokeColor=none;fillColor=none;align=center;verticalAlign=middle;whiteSpace=wrap;rounded=0;" vertex="1" parent="1">
          <mxGeometry x="90" y="295" width="60" height="30" as="geometry" />
        </mxCell>
        <mxCell id="KTBhJwbWVJIcJmlqZFoL-84" value="S12" style="text;html=1;strokeColor=none;fillColor=none;align=center;verticalAlign=middle;whiteSpace=wrap;rounded=0;" vertex="1" parent="1">
          <mxGeometry x="245" y="295" width="60" height="30" as="geometry" />
        </mxCell>
        <mxCell id="KTBhJwbWVJIcJmlqZFoL-85" value="S13" style="text;html=1;strokeColor=none;fillColor=none;align=center;verticalAlign=middle;whiteSpace=wrap;rounded=0;" vertex="1" parent="1">
          <mxGeometry x="392.5" y="295" width="60" height="30" as="geometry" />
        </mxCell>
        <mxCell id="KTBhJwbWVJIcJmlqZFoL-86" value="S14" style="text;html=1;strokeColor=none;fillColor=none;align=center;verticalAlign=middle;whiteSpace=wrap;rounded=0;" vertex="1" parent="1">
          <mxGeometry x="545" y="295" width="60" height="30" as="geometry" />
        </mxCell>
        <mxCell id="KTBhJwbWVJIcJmlqZFoL-87" value="S15" style="text;html=1;strokeColor=none;fillColor=none;align=center;verticalAlign=middle;whiteSpace=wrap;rounded=0;" vertex="1" parent="1">
          <mxGeometry x="700" y="295" width="60" height="30" as="geometry" />
        </mxCell>
        <mxCell id="KTBhJwbWVJIcJmlqZFoL-89" value="S17" style="text;html=1;strokeColor=none;fillColor=none;align=center;verticalAlign=middle;whiteSpace=wrap;rounded=0;" vertex="1" parent="1">
          <mxGeometry x="545" y="415" width="60" height="30" as="geometry" />
        </mxCell>
        <mxCell id="KTBhJwbWVJIcJmlqZFoL-90" value="S18" style="text;html=1;strokeColor=none;fillColor=none;align=center;verticalAlign=middle;whiteSpace=wrap;rounded=0;" vertex="1" parent="1">
          <mxGeometry x="390" y="415" width="60" height="30" as="geometry" />
        </mxCell>
        <mxCell id="KTBhJwbWVJIcJmlqZFoL-91" value="S19" style="text;html=1;strokeColor=none;fillColor=none;align=center;verticalAlign=middle;whiteSpace=wrap;rounded=0;" vertex="1" parent="1">
          <mxGeometry x="245" y="415" width="60" height="30" as="geometry" />
        </mxCell>
        <mxCell id="KTBhJwbWVJIcJmlqZFoL-92" value="S20" style="text;html=1;strokeColor=none;fillColor=none;align=center;verticalAlign=middle;whiteSpace=wrap;rounded=0;" vertex="1" parent="1">
          <mxGeometry x="90" y="415" width="60" height="30" as="geometry" />
        </mxCell>
        <mxCell id="KTBhJwbWVJIcJmlqZFoL-93" value="S21" style="text;html=1;strokeColor=none;fillColor=none;align=center;verticalAlign=middle;whiteSpace=wrap;rounded=0;" vertex="1" parent="1">
          <mxGeometry x="90" y="535" width="60" height="30" as="geometry" />
        </mxCell>
        <mxCell id="KTBhJwbWVJIcJmlqZFoL-94" value="S22" style="text;html=1;strokeColor=none;fillColor=none;align=center;verticalAlign=middle;whiteSpace=wrap;rounded=0;" vertex="1" parent="1">
          <mxGeometry x="245" y="535" width="60" height="30" as="geometry" />
        </mxCell>
        <mxCell id="KTBhJwbWVJIcJmlqZFoL-95" value="S23" style="text;html=1;strokeColor=none;fillColor=none;align=center;verticalAlign=middle;whiteSpace=wrap;rounded=0;" vertex="1" parent="1">
          <mxGeometry x="390" y="535" width="60" height="30" as="geometry" />
        </mxCell>
        <mxCell id="KTBhJwbWVJIcJmlqZFoL-96" value="S24" style="text;html=1;strokeColor=none;fillColor=none;align=center;verticalAlign=middle;whiteSpace=wrap;rounded=0;" vertex="1" parent="1">
          <mxGeometry x="545" y="535" width="60" height="30" as="geometry" />
        </mxCell>
        <mxCell id="KTBhJwbWVJIcJmlqZFoL-97" value="S25 Finish" style="text;html=1;strokeColor=none;fillColor=none;align=center;verticalAlign=middle;whiteSpace=wrap;rounded=0;" vertex="1" parent="1">
          <mxGeometry x="700" y="535" width="60" height="30" as="geometry" />
        </mxCell>
        <mxCell id="KTBhJwbWVJIcJmlqZFoL-98" value="S2" style="text;html=1;strokeColor=none;fillColor=none;align=center;verticalAlign=middle;whiteSpace=wrap;rounded=0;" vertex="1" parent="1">
          <mxGeometry x="245" y="55" width="60" height="30" as="geometry" />
        </mxCell>
        <mxCell id="KTBhJwbWVJIcJmlqZFoL-100" value="" style="shape=flexArrow;endArrow=classic;html=1;rounded=0;exitX=1.033;exitY=0.625;exitDx=0;exitDy=0;exitPerimeter=0;entryX=0;entryY=0.5;entryDx=0;entryDy=0;fillColor=#f8cecc;strokeColor=#b85450;" edge="1" parent="1" target="KTBhJwbWVJIcJmlqZFoL-5">
          <mxGeometry width="50" height="50" relative="1" as="geometry">
            <mxPoint x="165" y="69.5" as="sourcePoint" />
            <mxPoint x="222" y="69.5" as="targetPoint" />
          </mxGeometry>
        </mxCell>
        <mxCell id="KTBhJwbWVJIcJmlqZFoL-103" value="S16" style="text;html=1;strokeColor=none;fillColor=none;align=center;verticalAlign=middle;whiteSpace=wrap;rounded=0;" vertex="1" parent="1">
          <mxGeometry x="700" y="415" width="60" height="30" as="geometry" />
        </mxCell>
        <mxCell id="KTBhJwbWVJIcJmlqZFoL-104" value="" style="shape=flexArrow;endArrow=classic;html=1;rounded=0;exitX=0;exitY=0.5;exitDx=0;exitDy=0;entryX=1;entryY=0.5;entryDx=0;entryDy=0;fillColor=#f8cecc;strokeColor=#b85450;" edge="1" parent="1">
          <mxGeometry width="50" height="50" relative="1" as="geometry">
            <mxPoint x="685" y="429.5" as="sourcePoint" />
            <mxPoint x="620" y="429.5" as="targetPoint" />
          </mxGeometry>
        </mxCell>
      </root>
    </mxGraphModel>
  </diagram>
</mxfile>
